<?xml version="1.0" standalone="no"?>
<!DOCTYPE svg PUBLIC "-//W3C//DTD SVG 1.1//EN" "http://www.w3.org/Graphics/SVG/1.1/DTD/svg11.dtd" >
<svg xmlns="http://www.w3.org/2000/svg">
<metadata>
Created by FontPrep 20130207 at Sun Jun 21 12:07:00 2015
 By Keegan Robinson
Copyright (c) 2011 by Atipus. All rights reserved.
</metadata>
<defs>
<font id="c3f88d504bf871edbcffdf847147574c" horiz-adv-x='1024' >
  <font-face 
    font-family="Blanch-Condensed"
    font-weight="440"
    font-stretch="normal"
    units-per-em="2048"
    panose-1="2 11 5 6 0 0 0 2 0 4"
    ascent="1434"
    descent="-614"
    x-height="1360"
    cap-height="1362"
    bbox="-96.5714 -274.029 1126.01 1782"
    underline-thickness="102"
    underline-position="-102"
    unicode-range="U+0020-20AC"
  />
<missing-glyph horiz-adv-x="0" 
 />
    <glyph glyph-name=".notdef" horiz-adv-x="0" 
 />
    <glyph glyph-name=".null" horiz-adv-x="0" 
 />
    <glyph glyph-name="nonmarkingreturn" horiz-adv-x="681" 
 />
    <glyph glyph-name="space" unicode=" " horiz-adv-x="294" 
 />
    <glyph glyph-name="exclam" unicode="!" horiz-adv-x="301" 
d="M190 1331v-1091q0 -33 -32 -33h-66q-33 0 -33 33v1091q0 33 33 33h66q32 0 32 -33zM158 76q33 0 32 -33v-135q0 -12 -9 -22t-23 -11h-66q-14 0 -23 10t-10 23v135q0 33 33 33h66z" />
    <glyph glyph-name="numbersign" unicode="#" horiz-adv-x="1085" 
d="M940 813h-238v-262h238q33 0 33 -33v-65q0 -33 -33 -33h-238v-387q0 -13 -9 -23t-23 -10h-66q-14 0 -23 10t-10 23v387h-131v-387q0 -13 -9 -23t-23 -10h-66q-14 0 -24 10q-9 10 -9 23v387h-237q-33 0 -33 33v65q0 33 33 33h237v262h-237q-33 0 -33 33v65q0 33 33 33h237
v385q0 33 33 33h66q33 0 32 -33v-385h131v385q0 33 33 33h66q33 0 32 -33v-385h238q33 0 33 -33v-65q0 -33 -33 -33zM440 813v-262h131v262h-131z" />
    <glyph glyph-name="dollar" unicode="$" horiz-adv-x="641" 
d="M432 1028q-12 0 -22 9t-11 24v69q0 43 -30 74q-31 31 -74 31t-74 -31t-31 -74v-104q0 -25 7 -35l295 -520q30 -53 34 -69t4 -62v-102q0 -80 -48 -142t-122 -84v-102q0 -33 -32 -33h-66q-33 0 -33 33v102q-73 23 -121 84t-49 142v69q0 33 33 33h66q33 0 32 -33v-69
q0 -43 31 -74t74 -31t74 31t30 74v102q0 25 -4 35l-295 520q-32 51 -36 67t-5 64v104q1 80 49 142t121 84v102q0 33 33 33h66q33 0 32 -33v-102q74 -23 122 -84t48 -142v-69q0 -33 -32 -33h-66z" />
    <glyph glyph-name="percent" unicode="%" horiz-adv-x="1159" 
d="M918 238v139q0 43 -31 74t-74 31t-74 -32q-31 -30 -30 -73v-139q1 -43 31 -74t73 -31t74 31t31 74zM449 334v-301q0 -33 -33 -33h-66q-12 0 -22 9t-11 24v301q0 47 6 63q5 16 35 68l295 522q6 10 6 35v307q0 33 33 33h66q33 0 33 -33v-307q0 -46 -5 -62t-34 -69
l-297 -522q-6 -10 -6 -35zM532 987q0 -96 -70 -166q-70 -69 -166 -69q-97 0 -167 70t-70 165v139q0 96 70 166t167 70t167 -70t69 -166v-139zM814 612q97 0 166 -70t69 -165v-139q0 -96 -69 -166t-166 -70t-167 70t-69 166v139q0 96 69 166q70 69 167 69zM401 987v139
q0 43 -30 74q-31 31 -75 31t-75 -31t-31 -74v-139q0 -43 31 -74t75 -31t75 31q30 31 30 74z" />
    <glyph glyph-name="ampersand" unicode="&#x26;" horiz-adv-x="759" 
d="M401 133v619h-106q-43 0 -74 -31t-31 -76v-407q0 -43 31 -74t74 -31h106zM637 883q33 0 33 -33v-66q0 -33 -33 -32h-105v-719q0 -13 -10 -23t-22 -10h-205q-96 0 -166 70t-70 168v407q0 104 74 172q-74 68 -74 170v139q0 98 70 167t166 69h70q33 0 32 -33v-65
q0 -12 -9 -22t-23 -11h-70q-43 0 -74 -31t-31 -74v-139q0 -43 31 -74t74 -30h106v104q0 33 33 33h66q12 0 22 -9t10 -24v-104h105z" />
    <glyph glyph-name="quotesingle" unicode="'" horiz-adv-x="301" 
d="M158 1364q33 0 32 -33v-409q0 -33 -32 -33h-66q-33 0 -33 33v409q0 33 33 33h66z" />
    <glyph glyph-name="parenleft" unicode="(" horiz-adv-x="438" 
d="M328 1266q0 -33 -38 -33t-69 -31t-31 -76v-890q0 -43 31 -74t69 -31t38 -33v-65q0 -33 -33 -33q-96 0 -166 70t-70 166v890q0 98 70 167t166 69q33 0 33 -33v-63z" />
    <glyph glyph-name="parenright" unicode=")" horiz-adv-x="436" 
d="M92 1362q96 0 166 -69t70 -167v-890q0 -96 -70 -166t-166 -70q-33 0 -33 33v65q0 33 38 33t69 31t31 74v890q0 45 -31 76t-69 31t-38 33v63q0 33 33 33z" />
    <glyph glyph-name="plus" unicode="+" horiz-adv-x="569" 
d="M428 748q12 0 22 -10t11 -23v-66q0 -12 -10 -22t-23 -11h-102v-102q0 -12 -10 -21t-23 -10h-66q-14 -1 -23 9t-9 22v102h-103q-14 0 -23 10t-10 23v66q0 33 33 33h103v102q0 33 32 33h66q33 0 33 -33v-102h102z" />
    <glyph glyph-name="comma" unicode="," horiz-adv-x="301" 
d="M158 201q33 0 32 -33v-410q0 -33 -32 -32h-66q-33 0 -33 32v410q0 33 33 33h66z" />
    <glyph glyph-name="hyphen" unicode="-" horiz-adv-x="571" 
d="M428 748q33 0 33 -33v-66q0 -33 -33 -33h-336q-12 0 -22 10t-11 23v66q1 14 11 23t22 10h336z" />
    <glyph glyph-name="period" unicode="." horiz-adv-x="301" 
d="M158 201q33 0 32 -33v-135q0 -13 -9 -23t-23 -10h-66q-14 0 -23 10t-10 23v135q0 33 33 33h66z" />
    <glyph glyph-name="slash" unicode="/" horiz-adv-x="643" 
d="M532 1329v-307q0 -48 -5 -64t-35 -67l-295 -522q-6 -10 -7 -35v-301q0 -33 -32 -33h-66q-33 0 -33 33v301q0 47 6 63q5 16 33 68l297 522q6 10 6 35v307q0 33 33 33h66q12 0 22 -10t10 -23z" />
    <glyph glyph-name="zero" unicode="0" horiz-adv-x="641" 
d="M399 1020v104q0 45 -30 76q-31 31 -74 31t-74 -31t-31 -76v-497l205 360q4 10 4 33zM295 1362q98 0 167 -70t68 -168v-888q0 -98 -68 -167t-167 -69q-98 0 -167 69t-69 167v888q0 98 69 168t167 70zM399 236v493l-202 -360q-6 -10 -7 -35v-98q0 -43 31 -74t74 -31t74 31
q30 31 30 74z" />
    <glyph glyph-name="one" unicode="1" horiz-adv-x="440" 
d="M264 1362q27 0 46 -20t20 -46v-1263q0 -13 -10 -23t-23 -10h-66q-33 0 -32 33v1198h-107q-33 0 -33 33v65q-1 13 9 23t24 10h172z" />
    <glyph glyph-name="two" unicode="2" horiz-adv-x="643" 
d="M190 131h310q12 0 22 -10t10 -23v-65q0 -13 -10 -23t-22 -10h-408q-33 0 -33 33v301q0 47 6 63q5 16 33 68l297 522q6 10 6 33v104q0 45 -30 76q-31 31 -75 31t-75 -31t-31 -76v-69q0 -33 -32 -33h-66q-33 0 -33 33v69q0 98 70 168t167 70t167 -70t69 -168v-104
q0 -46 -5 -62t-35 -69l-295 -520q-6 -10 -7 -35v-203z" />
    <glyph glyph-name="three" unicode="3" horiz-adv-x="643" 
d="M532 1124v-274q0 -100 -73 -170q74 -70 73 -170v-274q0 -98 -70 -167t-166 -69q-97 0 -167 69t-70 167v69q0 33 33 33h66q33 0 32 -33v-69q0 -43 31 -74t75 -31t75 31t30 74v274q0 43 -30 74q-31 30 -70 30t-39 33v66q0 33 39 33t70 30q31 31 30 74v274q0 43 -30 74
q-31 31 -75 31t-75 -31t-31 -74v-69q0 -33 -32 -33h-66q-33 0 -33 33v69q0 98 70 168t167 70q96 0 166 -70t70 -168z" />
    <glyph glyph-name="four" unicode="4" horiz-adv-x="780" 
d="M500 1362q32 0 32 -40t-5 -56t-35 -68l-295 -522q-6 -10 -7 -35v-27h211v105q0 33 33 33h66q12 0 22 -10t10 -23v-105h105q14 0 23 -10t10 -22v-66q0 -33 -33 -33h-105v-450q0 -13 -10 -23t-22 -10h-66q-33 0 -33 33v450h-309q-33 0 -33 33v125q-1 47 5 63t34 68l297 522
q6 10 6 28q-1 18 9 30q10 10 24 10h66z" />
    <glyph glyph-name="five" unicode="5" horiz-adv-x="643" 
d="M297 877q96 0 166 -69t69 -167v-405q0 -98 -70 -167t-166 -69q-97 0 -167 69t-70 167v69q0 33 33 33h66q33 0 32 -33v-69q0 -43 31 -74t75 -31t75 31t30 74v405q0 43 -30 74q-31 31 -74 30h-205q-14 1 -23 11t-10 22v551q-1 13 9 23t24 10h408q14 0 23 -10t9 -23v-65
q0 -33 -32 -33h-310v-354h107z" />
    <glyph glyph-name="six" unicode="6" horiz-adv-x="643" 
d="M434 1022q-33 0 -33 33v69q0 45 -30 76q-31 31 -75 31t-75 -31t-31 -76v-272q49 25 107 25q96 0 166 -69t69 -167v-405q0 -98 -70 -167t-166 -69q-97 0 -167 69t-70 167v888q0 98 70 168t167 70t167 -70t69 -168v-69q0 -33 -32 -33h-66zM190 641v-405q0 -43 31 -74
t75 -31t75 31t30 74v405q0 43 -30 74q-31 31 -75 31t-75 -32q-31 -30 -31 -73z" />
    <glyph glyph-name="seven" unicode="7" horiz-adv-x="641" 
d="M530 1329v-309q0 -46 -5 -62t-33 -69l-295 -520q-6 -10 -7 -35v-301q0 -33 -32 -33h-66q-33 0 -33 33v301q0 47 6 63q5 16 33 68l297 522q4 10 4 33v211h-307q-33 0 -33 33v65q-1 13 9 23t24 10h406q14 0 23 -10t9 -23z" />
    <glyph glyph-name="eight" unicode="8" horiz-adv-x="641" 
d="M530 987q0 -102 -73 -172q74 -70 73 -172v-407q0 -98 -68 -167t-166 -69q-97 0 -167 69t-70 167v407q0 102 74 172q-74 70 -74 172v137q0 98 70 168t167 70t166 -70t68 -168v-137zM399 987v137q0 45 -30 76q-31 31 -74 31t-74 -31t-31 -76v-137q0 -45 31 -76t74 -31
t74 31q30 31 30 76zM399 643q0 43 -30 74q-31 31 -74 31t-74 -31t-31 -74v-407q0 -43 31 -74t74 -31t74 31t30 74v407z" />
    <glyph glyph-name="nine" unicode="9" horiz-adv-x="641" 
d="M296 1362q97 0 166 -70t68 -168v-888q0 -98 -68 -167t-166 -69q-97 0 -167 69t-70 167v69q0 33 33 33h66q33 0 32 -33v-69q0 -43 31 -74t74 -31t74 31t30 74v405q-47 -25 -104 -25q-96 0 -166 69t-70 167v272q0 98 70 168t167 70zM399 852v272q0 45 -30 76q-31 31 -74 31
t-74 -31t-31 -76v-272q0 -43 31 -74q31 -30 74 -30t74 30q30 31 30 74z" />
    <glyph glyph-name="colon" unicode=":" horiz-adv-x="301" 
d="M158 778q33 0 32 -33v-135q0 -12 -9 -22t-23 -10h-66q-14 0 -23 10t-10 22v135q0 33 33 33h66zM92 201h66q33 0 32 -33v-135q0 -13 -9 -23t-23 -10h-66q-33 0 -33 33v135q0 33 33 33z" />
    <glyph glyph-name="semicolon" unicode=";" horiz-adv-x="301" 
d="M158 201q33 0 32 -33v-410q0 -33 -32 -32h-66q-33 0 -33 32v410q0 33 33 33h66zM158 778q33 0 32 -33v-135q0 -12 -9 -22t-23 -10h-66q-14 0 -23 10t-10 22v135q0 33 33 33h66z" />
    <glyph glyph-name="equal" unicode="=" horiz-adv-x="571" 
d="M426 879q33 0 33 -33v-66q0 -12 -9 -22t-24 -10h-334q-14 0 -23 10t-10 22v66q0 33 33 33h334zM426 618q33 0 33 -32v-66q0 -33 -33 -33h-334q-33 0 -33 33v66q0 33 33 32h334z" />
    <glyph glyph-name="question" unicode="?" horiz-adv-x="641" 
d="M294 1364q97 0 167 -70t69 -166v-104q0 -45 -5 -61t-36 -70l-294 -520q-4 -10 -5 -33v-100q0 -14 -10 -24t-22 -9h-66q-33 0 -33 33v100q0 45 6 61q5 16 33 70l295 520q6 10 6 33v104q0 43 -30 74q-31 31 -74 31t-74 -31t-31 -74v-69q0 -13 -10 -23t-22 -10h-66
q-33 0 -33 33v69q0 96 69 166t166 70zM158 76q12 0 22 -9t10 -24v-135q0 -14 -10 -24t-22 -9h-66q-33 0 -33 33v135q0 33 33 33h66z" />
    <glyph glyph-name="at" unicode="@" horiz-adv-x="1236" 
d="M698 748v81q0 43 -30 74q-31 31 -74 31t-74 -31t-31 -74v-81h209zM891 1362q98 0 167 -69t68 -167v-591q0 -96 -68 -166t-167 -70h-160q-33 0 -33 33v284h-209v-284q0 -33 -32 -33h-66q-33 0 -33 33v497q0 96 70 166t166 70t166 -70t69 -166v-399h62q45 0 76 31t30 74
v591q0 45 -30 76q-31 31 -76 31h-596q-43 0 -74 -31t-31 -76v-890q0 -43 31 -74t74 -31h371q33 0 32 -33v-65q0 -33 -32 -33h-371q-96 0 -166 70t-70 166v890q0 98 70 167t166 69h596z" />
    <glyph glyph-name="A" unicode="A" horiz-adv-x="643" 
d="M401 748v376q0 45 -30 76q-31 31 -75 31t-75 -31t-31 -76v-376h211zM296 1362q97 0 167 -70t69 -168v-1091q0 -33 -32 -33h-66q-33 0 -33 33v583h-211v-583q0 -33 -32 -33h-66q-12 0 -22 9t-11 24v1091q0 98 70 168t167 70z" />
    <glyph glyph-name="B" unicode="B" horiz-adv-x="643" 
d="M401 852v272q0 45 -30 76q-31 31 -74 31h-107v-486h107q43 0 74 31q30 31 30 76zM532 1124v-272q0 -102 -73 -172q74 -70 73 -170v-274q0 -96 -70 -166t-165 -70h-172q-27 0 -46 19t-20 47v1230q-1 27 19 46t47 20h172q95 0 165 -70t70 -168zM401 510q0 43 -30 74
q-31 31 -74 30h-107v-483h107q43 0 74 31t30 74v274z" />
    <glyph glyph-name="C" unicode="C" horiz-adv-x="620" 
d="M432 1024q-33 0 -33 33v69q0 43 -30 74q-31 31 -74 31t-74 -31t-31 -74v-890q0 -43 31 -74t74 -31t74 31t30 74v75q0 33 33 33h66q33 0 32 -33v-75q0 -96 -70 -166t-166 -70q-97 0 -166 70t-69 166v890q0 96 69 166t166 70t167 -70t69 -166v-69q0 -33 -32 -33h-66z" />
    <glyph glyph-name="D" unicode="D" horiz-adv-x="643" 
d="M401 236v888q0 45 -30 76q-31 31 -74 31h-107v-1100h107q43 0 74 31q30 31 30 74zM297 1362q98 0 167 -70t68 -168v-888q0 -96 -68 -166t-167 -70h-172q-27 0 -46 19t-20 47v1230q-1 27 19 46t47 20h172z" />
    <glyph glyph-name="E" unicode="E" horiz-adv-x="512" 
d="M369 1231h-179v-486h179q33 0 32 -32v-66q0 -12 -9 -22t-23 -11h-179v-483h179q14 0 23 -10t9 -23v-65q0 -33 -32 -33h-244q-27 0 -46 18t-20 48v1230q-1 27 19 46t47 20h244q14 0 23 -10t9 -23v-65q1 -33 -32 -33z" />
    <glyph glyph-name="F" unicode="F" horiz-adv-x="512" 
d="M369 1231h-179v-486h179q33 0 32 -32v-66q0 -12 -9 -22t-23 -11h-179v-581q0 -33 -32 -33h-66q-33 0 -33 33v1263q-1 27 19 46t47 20h244q14 0 23 -10t9 -23v-65q1 -33 -32 -33z" />
    <glyph glyph-name="G" unicode="G" horiz-adv-x="641" 
d="M432 1024q-33 0 -33 33v69q0 43 -30 74q-31 31 -74 31t-74 -31t-31 -74v-890q0 -43 31 -74t74 -31t74 31t30 74v382h-71q-33 0 -33 33v66q0 33 33 33h170q33 0 32 -33v-481q0 -96 -70 -166t-165 -70q-96 0 -166 70t-70 166v890q0 96 70 166t166 70t166 -70t69 -166v-69
q0 -33 -32 -33h-66z" />
    <glyph glyph-name="H" unicode="H" horiz-adv-x="641" 
d="M498 1362q14 0 23 -10t9 -23v-1296q0 -33 -32 -33h-64q-33 0 -33 33v581h-211v-581q0 -33 -32 -33h-66q-33 0 -33 33v1296q-1 13 9 23t24 10h66q14 0 23 -10t9 -23v-584h211v584q-1 13 9 23t24 10h64z" />
    <glyph glyph-name="I" unicode="I" horiz-adv-x="301" 
d="M190 1329v-1296q0 -33 -32 -33h-66q-33 0 -33 33v1296q-1 13 9 23t24 10h66q14 0 23 -10t9 -23z" />
    <glyph glyph-name="J" unicode="J" horiz-adv-x="641" 
d="M498 1362q33 0 32 -33v-1093q0 -96 -68 -166t-166 -70q-97 0 -167 70t-70 166v75q0 33 33 33h66q33 0 32 -33v-75q0 -43 31 -74t74 -31t74 31t30 74v1093q1 13 11 23t22 10h66z" />
    <glyph glyph-name="K" unicode="K" horiz-adv-x="643" 
d="M532 1329v-477q0 -100 -73 -170q74 -70 73 -172v-477q0 -13 -10 -23t-22 -10h-66q-33 0 -33 33v477q0 45 -30 76q-31 31 -76 30h-105v-583q0 -33 -32 -33h-66q-33 0 -33 33v1296q-1 13 9 23t24 10h66q14 0 23 -10t9 -23v-581h105q45 0 76 30t30 74v477q-1 13 9 23t24 10
h66q12 0 22 -10t10 -23z" />
    <glyph glyph-name="L" unicode="L" horiz-adv-x="489" 
d="M367 131q14 0 23 -10t9 -23v-65q0 -33 -32 -33h-242q-27 0 -46 18t-20 48v1263q-1 13 9 23t24 10h66q12 0 22 -10t10 -23v-1198h177z" />
    <glyph glyph-name="M" unicode="M" horiz-adv-x="985" 
d="M636 1362q99 0 169 -70t69 -168v-1091q0 -13 -10 -23t-22 -10h-66q-33 0 -33 33v1091q0 45 -30 76q-31 31 -75 31t-75 -31t-31 -76v-1091q0 -33 -32 -33h-66q-33 0 -33 33v1091q0 45 -30 76q-31 31 -75 31t-75 -31t-31 -76v-1091q0 -33 -32 -33h-66q-12 0 -22 9t-11 24
v1091q0 98 70 168t169 70t169 -74q70 74 169 74z" />
    <glyph glyph-name="N" unicode="N" horiz-adv-x="643" 
d="M296 1362q97 0 167 -70t69 -168v-1091q0 -33 -32 -33h-66q-33 0 -33 33v1091q0 45 -30 76q-31 31 -75 31t-75 -31t-31 -76v-1091q0 -33 -32 -33h-66q-33 0 -33 33v1091q0 98 70 168t167 70z" />
    <glyph glyph-name="O" unicode="O" horiz-adv-x="643" 
d="M296 1362q97 0 167 -70t69 -168v-888q0 -98 -70 -167t-166 -69q-97 0 -167 69t-70 167v888q0 98 70 168t167 70zM401 236v888q0 45 -30 76q-31 31 -75 31t-75 -31t-31 -76v-888q0 -43 31 -74t75 -31t75 31q30 31 30 74z" />
    <glyph glyph-name="P" unicode="P" horiz-adv-x="600" 
d="M295 1362q96 0 166 -70t69 -168v-272q0 -98 -70 -167t-165 -69h-107v-583q0 -13 -9 -23t-21 -10h-66q-33 0 -33 33v1296q-1 13 9 23t24 10h203zM399 852v272q0 45 -30 76q-31 31 -74 31h-107v-483h107q43 0 74 30q30 31 30 74z" />
    <glyph glyph-name="Q" unicode="Q" horiz-adv-x="643" 
d="M262 -129q-31 0 -33 31v108q-73 23 -121 84t-49 142v886q0 98 70 167t166 69t166 -69t69 -167v-886q0 -80 -48 -142t-122 -84v-108q0 -12 -9 -22t-23 -9h-66zM399 236v886q0 45 -30 76q-31 31 -74 31t-74 -31t-31 -76v-886q0 -43 31 -74t74 -31t74 31q30 31 30 74z" />
    <glyph glyph-name="R" unicode="R" horiz-adv-x="630" 
d="M520 1124v-272q0 -102 -71 -170q72 -68 71 -172v-477q0 -33 -33 -33h-65q-33 0 -33 33v477q0 45 -31 76t-73 30h-105v-583q0 -13 -10 -23t-23 -10h-65q-33 0 -33 33v1263q-1 27 19 46t47 20h170q99 0 167 -70t68 -168zM389 852v272q0 45 -31 76t-73 31h-105v-483h105
q43 0 73 30t31 74z" />
    <glyph glyph-name="S" unicode="S" horiz-adv-x="600" 
d="M412 1024q-33 0 -33 33v69q0 43 -31 74t-74 31q-44 0 -74 -31t-30 -74v-104q0 -25 6 -35l295 -520q29 -51 34 -67t5 -62v-102q0 -98 -70 -167t-166 -69t-166 69t-69 167v69q0 13 9 23t24 10h65q13 0 23 -10t10 -23v-69q0 -45 31 -76t73 -31t74 31q31 31 31 76v102
q0 23 -6 33l-295 520q-29 53 -34 68t-5 63v104q0 96 70 166q69 70 165 70t166 -70t70 -166v-69q0 -33 -33 -33h-65z" />
    <glyph glyph-name="T" unicode="T" horiz-adv-x="509" 
d="M387 1362q13 0 23 -10t10 -23v-65q0 -33 -33 -33h-92v-1198q0 -33 -33 -33h-65q-33 0 -33 33v1198h-92q-33 0 -33 33v65q0 13 9 23t24 10h315z" />
    <glyph glyph-name="U" unicode="U" horiz-adv-x="643" 
d="M500 1362q14 0 23 -10t9 -23v-1093q0 -98 -70 -167t-166 -69q-97 0 -167 69t-70 167v1093q1 13 11 23t22 10h66q14 0 23 -10t9 -23v-1093q0 -43 31 -74t75 -31t75 31t30 74v1093q-1 13 9 23t24 10h66z" />
    <glyph glyph-name="V" unicode="V" horiz-adv-x="643" 
d="M498 1362q14 0 23 -10t9 -23v-987q0 -70 -38 -131l-111 -195q-10 -16 -29 -16h-114q-18 0 -29 16l-111 195q-39 61 -39 131v987q-1 13 9 23t24 10h66q12 0 22 -10t10 -23v-987q0 -12 5 -33l100 -176l98 176q6 14 6 33v987q-1 13 9 23t24 10h66z" />
    <glyph glyph-name="W" unicode="W" horiz-adv-x="983" 
d="M840 1360q33 0 32 -33v-985q0 -70 -38 -131l-111 -195q-10 -16 -29 -16h-114q-18 0 -29 16l-84 150l-86 -150q-10 -16 -29 -16h-112q-23 0 -29 16l-111 195q-41 59 -41 131v985q0 33 33 33h66q33 0 32 -33v-985q0 -18 7 -33l98 -176l100 176q6 14 6 33v985q0 33 33 33h66
q33 0 32 -33v-985q0 -18 7 -33l98 -176l100 176q4 20 4 33v985q1 13 11 23t22 10h66z" />
    <glyph glyph-name="X" unicode="X" horiz-adv-x="643" 
d="M532 1020q0 -72 -40 -131l-119 -211l119 -213q41 -59 40 -131v-301q0 -33 -32 -33h-66q-33 0 -33 33v301q0 18 -6 33l-100 176l-98 -176q-6 -14 -7 -33v-301q0 -33 -32 -33h-66q-33 0 -33 33v301q0 72 41 131l119 213l-119 211q-41 59 -41 131v309q-1 13 9 23t24 10h66
q14 0 23 -10t9 -23v-309q0 -16 7 -33l98 -176l100 176q6 16 6 33v309q-1 13 9 23t24 10h66q14 0 23 -10t9 -23v-309z" />
    <glyph glyph-name="Y" unicode="Y" horiz-adv-x="602" 
d="M479 1362q13 0 23 -10t10 -23v-477q0 -80 -48 -142t-122 -85v-592q0 -13 -10 -23t-23 -10h-65q-33 0 -33 33v592q-76 23 -124 85t-48 142v477q0 13 9 23t24 10h65q13 0 23 -10t10 -23v-477q0 -43 31 -74q31 -30 75 -30t74 30q31 30 31 74v477q0 13 9 23t24 10h65z" />
    <glyph glyph-name="Z" unicode="Z" horiz-adv-x="620" 
d="M530 1329v-309q0 -46 -5 -62t-33 -69l-295 -520q-6 -10 -7 -35v-203h308q14 0 23 -10t9 -23v-65q0 -33 -32 -33h-406q-33 0 -33 33v301q0 47 6 63q5 16 33 68l297 522q4 10 4 33v211h-307q-33 0 -33 33v65q-1 13 9 23t24 10h406q14 0 23 -10t9 -23z" />
    <glyph glyph-name="bracketleft" unicode="[" horiz-adv-x="509" 
d="M367 1231h-177v-1100h177q33 0 32 -33v-65q0 -33 -32 -33h-242q-27 0 -46 19t-20 47v1230q-1 27 19 46t47 20h242q33 0 32 -33v-65q1 -33 -32 -33z" />
    <glyph glyph-name="backslash" unicode="\" horiz-adv-x="643" 
d="M59 1022v307q0 33 33 33h66q33 0 32 -33v-307q0 -25 7 -35l295 -522q32 -53 36 -69t4 -62v-301q0 -13 -10 -23t-22 -10h-66q-33 0 -33 33v301q0 25 -6 35l-297 522q-29 53 -34 69t-5 62z" />
    <glyph glyph-name="bracketright" unicode="]" horiz-adv-x="509" 
d="M334 1362q27 0 46 -20t19 -46v-1230q0 -26 -19 -46t-46 -20h-242q-33 0 -33 33v65q0 33 33 33h176v1100h-176q-33 0 -33 33v65q0 33 33 33h242z" />
    <glyph glyph-name="asciicircum" unicode="^" horiz-adv-x="612" 
d="M88 1497q-18 0 -25 11q-6 11 3 26l118 209q16 31 58 39h77q41 -8 58 -39l119 -209q8 -14 2 -26t-25 -11h-63q-45 0 -64 37l-65 115l-64 -115q-23 -37 -65 -37h-64z" />
    <glyph glyph-name="grave" unicode="`" horiz-adv-x="452" 
d="M88 1782h64q45 0 65 -39l119 -207q8 -16 2 -28t-25 -11h-63q-46 0 -66 39l-118 207q-18 39 22 39z" />
    <glyph glyph-name="a" unicode="a" horiz-adv-x="643" 
d="M401 748v376q0 45 -30 76q-31 31 -75 31t-75 -31t-31 -76v-376h211zM296 1362q97 0 167 -70t69 -168v-1091q0 -33 -32 -33h-66q-33 0 -33 33v583h-211v-583q0 -33 -32 -33h-66q-12 0 -22 9t-11 24v1091q0 98 70 168t167 70z" />
    <glyph glyph-name="b" unicode="b" horiz-adv-x="643" 
d="M401 852v272q0 45 -30 76q-31 31 -74 31h-107v-486h107q43 0 74 31q30 31 30 76zM532 1124v-272q0 -102 -73 -172q74 -70 73 -170v-274q0 -96 -70 -166t-165 -70h-172q-27 0 -46 19t-20 47v1230q-1 27 19 46t47 20h172q95 0 165 -70t70 -168zM401 510q0 43 -30 74
q-31 31 -74 30h-107v-483h107q43 0 74 31t30 74v274z" />
    <glyph glyph-name="c" unicode="c" horiz-adv-x="620" 
d="M432 1024q-33 0 -33 33v69q0 43 -30 74q-31 31 -74 31t-74 -31t-31 -74v-890q0 -43 31 -74t74 -31t74 31t30 74v75q0 33 33 33h66q33 0 32 -33v-75q0 -96 -70 -166t-166 -70q-97 0 -166 70t-69 166v890q0 96 69 166t166 70t167 -70t69 -166v-69q0 -33 -32 -33h-66z" />
    <glyph glyph-name="d" unicode="d" horiz-adv-x="643" 
d="M401 236v888q0 45 -30 76q-31 31 -74 31h-107v-1100h107q43 0 74 31q30 31 30 74zM297 1362q98 0 167 -70t68 -168v-888q0 -96 -68 -166t-167 -70h-172q-27 0 -46 19t-20 47v1230q-1 27 19 46t47 20h172z" />
    <glyph glyph-name="e" unicode="e" horiz-adv-x="512" 
d="M369 1231h-179v-486h179q33 0 32 -32v-66q0 -12 -9 -22t-23 -11h-179v-483h179q14 0 23 -10t9 -23v-65q0 -33 -32 -33h-244q-27 0 -46 18t-20 48v1230q-1 27 19 46t47 20h244q14 0 23 -10t9 -23v-65q1 -33 -32 -33z" />
    <glyph glyph-name="f" unicode="f" horiz-adv-x="512" 
d="M369 1231h-179v-486h179q33 0 32 -32v-66q0 -12 -9 -22t-23 -11h-179v-581q0 -33 -32 -33h-66q-33 0 -33 33v1263q-1 27 19 46t47 20h244q14 0 23 -10t9 -23v-65q1 -33 -32 -33z" />
    <glyph glyph-name="g" unicode="g" horiz-adv-x="641" 
d="M432 1024q-33 0 -33 33v69q0 43 -30 74q-31 31 -74 31t-74 -31t-31 -74v-890q0 -43 31 -74t74 -31t74 31t30 74v382h-71q-33 0 -33 33v66q0 33 33 33h170q33 0 32 -33v-481q0 -96 -70 -166t-165 -70q-96 0 -166 70t-70 166v890q0 96 70 166t166 70t166 -70t69 -166v-69
q0 -33 -32 -33h-66z" />
    <glyph glyph-name="h" unicode="h" horiz-adv-x="641" 
d="M498 1362q14 0 23 -10t9 -23v-1296q0 -33 -32 -33h-64q-33 0 -33 33v581h-211v-581q0 -33 -32 -33h-66q-33 0 -33 33v1296q-1 13 9 23t24 10h66q14 0 23 -10t9 -23v-584h211v584q-1 13 9 23t24 10h64z" />
    <glyph glyph-name="i" unicode="i" horiz-adv-x="301" 
d="M190 1329v-1296q0 -33 -32 -33h-66q-33 0 -33 33v1296q-1 13 9 23t24 10h66q14 0 23 -10t9 -23z" />
    <glyph glyph-name="j" unicode="j" horiz-adv-x="641" 
d="M498 1362q33 0 32 -33v-1093q0 -96 -68 -166t-166 -70q-97 0 -167 70t-70 166v75q0 33 33 33h66q33 0 32 -33v-75q0 -43 31 -74t74 -31t74 31t30 74v1093q1 13 11 23t22 10h66z" />
    <glyph glyph-name="k" unicode="k" horiz-adv-x="643" 
d="M532 1329v-477q0 -100 -73 -170q74 -70 73 -172v-477q0 -13 -10 -23t-22 -10h-66q-33 0 -33 33v477q0 45 -30 76q-31 31 -76 30h-105v-583q0 -33 -32 -33h-66q-33 0 -33 33v1296q-1 13 9 23t24 10h66q14 0 23 -10t9 -23v-581h105q45 0 76 30t30 74v477q-1 13 9 23t24 10
h66q12 0 22 -10t10 -23z" />
    <glyph glyph-name="l" unicode="l" horiz-adv-x="489" 
d="M367 131q14 0 23 -10t9 -23v-65q0 -33 -32 -33h-242q-27 0 -46 18t-20 48v1263q-1 13 9 23t24 10h66q12 0 22 -10t10 -23v-1198h177z" />
    <glyph glyph-name="m" unicode="m" horiz-adv-x="985" 
d="M636 1362q99 0 169 -70t69 -168v-1091q0 -13 -10 -23t-22 -10h-66q-33 0 -33 33v1091q0 45 -30 76q-31 31 -75 31t-75 -31t-31 -76v-1091q0 -33 -32 -33h-66q-33 0 -33 33v1091q0 45 -30 76q-31 31 -75 31t-75 -31t-31 -76v-1091q0 -33 -32 -33h-66q-12 0 -22 9t-11 24
v1091q0 98 70 168t169 70t169 -74q70 74 169 74z" />
    <glyph glyph-name="n" unicode="n" horiz-adv-x="643" 
d="M296 1362q97 0 167 -70t69 -168v-1091q0 -33 -32 -33h-66q-33 0 -33 33v1091q0 45 -30 76q-31 31 -75 31t-75 -31t-31 -76v-1091q0 -33 -32 -33h-66q-33 0 -33 33v1091q0 98 70 168t167 70z" />
    <glyph glyph-name="o" unicode="o" horiz-adv-x="643" 
d="M296 1362q97 0 167 -70t69 -168v-888q0 -98 -70 -167t-166 -69q-97 0 -167 69t-70 167v888q0 98 70 168t167 70zM401 236v888q0 45 -30 76q-31 31 -75 31t-75 -31t-31 -76v-888q0 -43 31 -74t75 -31t75 31q30 31 30 74z" />
    <glyph glyph-name="p" unicode="p" horiz-adv-x="600" 
d="M295 1362q96 0 166 -70t69 -168v-272q0 -98 -70 -167t-165 -69h-107v-583q0 -13 -9 -23t-21 -10h-66q-33 0 -33 33v1296q-1 13 9 23t24 10h203zM399 852v272q0 45 -30 76q-31 31 -74 31h-107v-483h107q43 0 74 30q30 31 30 74z" />
    <glyph glyph-name="q" unicode="q" horiz-adv-x="643" 
d="M262 -129q-31 0 -33 31v108q-73 23 -121 84t-49 142v886q0 98 70 167t166 69t166 -69t69 -167v-886q0 -80 -48 -142t-122 -84v-108q0 -12 -9 -22t-23 -9h-66zM399 236v886q0 45 -30 76q-31 31 -74 31t-74 -31t-31 -76v-886q0 -43 31 -74t74 -31t74 31q30 31 30 74z" />
    <glyph glyph-name="r" unicode="r" horiz-adv-x="630" 
d="M520 1124v-272q0 -102 -71 -170q72 -68 71 -172v-477q0 -33 -33 -33h-65q-33 0 -33 33v477q0 45 -31 76t-73 30h-105v-583q0 -13 -10 -23t-23 -10h-65q-33 0 -33 33v1263q-1 27 19 46t47 20h170q99 0 167 -70t68 -168zM389 852v272q0 45 -31 76t-73 31h-105v-483h105
q43 0 73 30t31 74z" />
    <glyph glyph-name="s" unicode="s" horiz-adv-x="600" 
d="M412 1024q-33 0 -33 33v69q0 43 -31 74t-74 31q-44 0 -74 -31t-30 -74v-104q0 -25 6 -35l295 -520q29 -51 34 -67t5 -62v-102q0 -98 -70 -167t-166 -69t-166 69t-69 167v69q0 13 9 23t24 10h65q13 0 23 -10t10 -23v-69q0 -45 31 -76t73 -31t74 31q31 31 31 76v102
q0 23 -6 33l-295 520q-29 53 -34 68t-5 63v104q0 96 70 166q69 70 165 70t166 -70t70 -166v-69q0 -33 -33 -33h-65z" />
    <glyph glyph-name="t" unicode="t" horiz-adv-x="509" 
d="M387 1362q13 0 23 -10t10 -23v-65q0 -33 -33 -33h-92v-1198q0 -33 -33 -33h-65q-33 0 -33 33v1198h-92q-33 0 -33 33v65q0 13 9 23t24 10h315z" />
    <glyph glyph-name="u" unicode="u" horiz-adv-x="643" 
d="M500 1362q14 0 23 -10t9 -23v-1093q0 -98 -70 -167t-166 -69q-97 0 -167 69t-70 167v1093q1 13 11 23t22 10h66q14 0 23 -10t9 -23v-1093q0 -43 31 -74t75 -31t75 31t30 74v1093q-1 13 9 23t24 10h66z" />
    <glyph glyph-name="v" unicode="v" horiz-adv-x="643" 
d="M498 1362q14 0 23 -10t9 -23v-987q0 -70 -38 -131l-111 -195q-10 -16 -29 -16h-114q-18 0 -29 16l-111 195q-39 61 -39 131v987q-1 13 9 23t24 10h66q12 0 22 -10t10 -23v-987q0 -12 5 -33l100 -176l98 176q6 14 6 33v987q-1 13 9 23t24 10h66z" />
    <glyph glyph-name="w" unicode="w" horiz-adv-x="983" 
d="M840 1360q33 0 32 -33v-985q0 -70 -38 -131l-111 -195q-10 -16 -29 -16h-114q-18 0 -29 16l-84 150l-86 -150q-10 -16 -29 -16h-112q-23 0 -29 16l-111 195q-41 59 -41 131v985q0 33 33 33h66q33 0 32 -33v-985q0 -18 7 -33l98 -176l100 176q6 14 6 33v985q0 33 33 33h66
q33 0 32 -33v-985q0 -18 7 -33l98 -176l100 176q4 20 4 33v985q1 13 11 23t22 10h66z" />
    <glyph glyph-name="x" unicode="x" horiz-adv-x="643" 
d="M532 1020q0 -72 -40 -131l-119 -211l119 -213q41 -59 40 -131v-301q0 -33 -32 -33h-66q-33 0 -33 33v301q0 18 -6 33l-100 176l-98 -176q-6 -14 -7 -33v-301q0 -33 -32 -33h-66q-33 0 -33 33v301q0 72 41 131l119 213l-119 211q-41 59 -41 131v309q-1 13 9 23t24 10h66
q14 0 23 -10t9 -23v-309q0 -16 7 -33l98 -176l100 176q6 16 6 33v309q-1 13 9 23t24 10h66q14 0 23 -10t9 -23v-309z" />
    <glyph glyph-name="y" unicode="y" horiz-adv-x="602" 
d="M479 1362q13 0 23 -10t10 -23v-477q0 -80 -48 -142t-122 -85v-592q0 -13 -10 -23t-23 -10h-65q-33 0 -33 33v592q-76 23 -124 85t-48 142v477q0 13 9 23t24 10h65q13 0 23 -10t10 -23v-477q0 -43 31 -74q31 -30 75 -30t74 30q31 30 31 74v477q0 13 9 23t24 10h65z" />
    <glyph glyph-name="z" unicode="z" horiz-adv-x="620" 
d="M530 1329v-309q0 -46 -5 -62t-33 -69l-295 -520q-6 -10 -7 -35v-203h308q14 0 23 -10t9 -23v-65q0 -33 -32 -33h-406q-33 0 -33 33v301q0 47 6 63q5 16 33 68l297 522q4 10 4 33v211h-307q-33 0 -33 33v65q-1 13 9 23t24 10h406q14 0 23 -10t9 -23z" />
    <glyph glyph-name="exclamdown" unicode="&#xa1;" horiz-adv-x="301" 
d="M59 -90v1091q0 33 33 33h66q33 0 32 -33v-1091q0 -33 -32 -33h-66q-33 0 -33 33zM92 1165q-33 0 -33 33v135q0 33 33 33h66q33 0 32 -33v-135q0 -33 -32 -33h-66z" />
    <glyph glyph-name="dieresis" unicode="&#xa8;" horiz-adv-x="509" 
d="M301 1497q-12 0 -22 9t-11 24v135q0 13 10 23t23 10h66q33 0 32 -33v-135q0 -33 -32 -33h-66zM92 1497q-33 0 -33 33v135q0 33 33 33h66q33 0 32 -33v-135q0 -33 -32 -33h-66z" />
    <glyph glyph-name="macron" unicode="&#xaf;" 
 />
    <glyph glyph-name="acute" unicode="&#xb4;" horiz-adv-x="450" 
d="M313 1782q17 0 23 -12t-2 -27l-117 -207q-20 -39 -65 -39h-64q-18 0 -25 11q-6 11 3 28l118 207q18 39 64 39h65z" />
    <glyph glyph-name="middot" unicode="&#xb7;" 
 />
    <glyph glyph-name="cedilla" unicode="&#xb8;" 
 />
    <glyph glyph-name="questiondown" unicode="&#xbf;" horiz-adv-x="641" 
d="M530 109q0 -96 -70 -166t-166 -70q-97 0 -166 70t-69 166v104q0 45 6 62q5 17 33 69l295 520q6 10 6 35v98q0 33 33 33h66q33 0 32 -33v-98q0 -47 -5 -63t-36 -68l-294 -520q-4 -10 -5 -35v-104q0 -43 31 -74t74 -31t74 31t30 74v69q0 33 33 33h66q33 0 32 -33v-69z
M432 1161q-33 0 -33 33v135q0 33 33 33h66q33 0 32 -33v-135q0 -33 -32 -33h-66z" />
    <glyph glyph-name="Agrave" unicode="&#xc0;" horiz-adv-x="643" 
d="M401 748v376q0 45 -30 76q-31 31 -75 31t-75 -31t-31 -76v-376h211zM296 1362q97 0 167 -70t69 -168v-1091q0 -33 -32 -33h-66q-33 0 -33 33v583h-211v-583q0 -33 -32 -33h-66q-12 0 -22 9t-11 24v1091q0 98 70 168t167 70zM104 1782h64q45 0 65 -39l119 -207
q8 -16 2 -28t-24 -11h-64q-45 0 -65 39l-119 207q-18 39 22 39z" />
    <glyph glyph-name="Aacute" unicode="&#xc1;" horiz-adv-x="643" 
d="M401 748v376q0 45 -30 76q-31 31 -75 31t-75 -31t-31 -76v-376h211zM296 1362q97 0 167 -70t69 -168v-1091q0 -33 -32 -33h-66q-33 0 -33 33v583h-211v-583q0 -33 -32 -33h-66q-12 0 -22 9t-11 24v1091q0 98 70 168t167 70zM254 1497q-18 0 -25 11q-6 11 2 26l119 209
q18 37 64 37h63q19 0 25 -12t-2 -25l-119 -209q-18 -37 -64 -37h-63z" />
    <glyph glyph-name="Acircumflex" unicode="&#xc2;" horiz-adv-x="643" 
d="M401 748v376q0 45 -30 76q-31 31 -75 31t-75 -31t-31 -76v-376h211zM296 1362q97 0 167 -70t69 -168v-1091q0 -33 -32 -33h-66q-33 0 -33 33v583h-211v-583q0 -33 -32 -33h-66q-12 0 -22 9t-11 24v1091q0 98 70 168t167 70zM102 1495q-39 0 -22 37l119 209q18 33 57 37
q2 2 39 2t39 -2q39 -4 57 -37l119 -209q8 -16 2 -26t-25 -11h-63q-43 0 -66 37l-63 115l-64 -115q-23 -37 -65 -37h-64z" />
    <glyph glyph-name="Atilde" unicode="&#xc3;" 
 />
    <glyph glyph-name="Adieresis" unicode="&#xc4;" horiz-adv-x="643" 
d="M401 748v376q0 45 -30 76q-31 31 -75 31t-75 -31t-31 -76v-376h211zM296 1362q97 0 167 -70t69 -168v-1091q0 -33 -32 -33h-66q-33 0 -33 33v583h-211v-583q0 -33 -32 -33h-66q-12 0 -22 9t-11 24v1091q0 98 70 168t167 70zM158 1497q-33 0 -33 33v135q0 13 9 23t24 10
h65q13 0 23 -10t10 -23v-135q0 -33 -33 -33h-65zM369 1497q-33 0 -33 33v135q0 13 9 23t24 10h63q14 0 24 -10t9 -23v-135q0 -33 -33 -33h-63z" />
    <glyph glyph-name="Aring" unicode="&#xc5;" 
 />
    <glyph glyph-name="AE" unicode="&#xc6;" 
 />
    <glyph glyph-name="Ccedilla" unicode="&#xc7;" horiz-adv-x="641" 
d="M432 1024q-33 0 -33 33v69q0 43 -30 74q-31 31 -74 31t-74 -31t-31 -74v-890q0 -45 31 -76t74 -31t74 31t30 76v75q0 33 33 33h66q33 0 32 -33v-75q0 -80 -48 -142t-122 -86v-102q0 -33 -32 -33h-66q-33 0 -33 33v102q-73 23 -121 85t-49 143v890q0 96 70 166t166 70
t166 -70t69 -166v-69q0 -33 -32 -33h-66z" />
    <glyph glyph-name="Egrave" unicode="&#xc8;" horiz-adv-x="512" 
d="M369 1231h-179v-486h179q33 0 32 -32v-66q0 -12 -9 -22t-23 -11h-179v-483h179q14 0 23 -10t9 -23v-65q0 -33 -32 -33h-244q-27 0 -46 18t-20 48v1230q-1 27 19 46t47 20h244q14 0 23 -10t9 -23v-65q1 -33 -32 -33zM199 1497q-45 0 -64 39l-119 207q-8 16 -2 27t25 12h63
q45 0 64 -39l119 -207q8 -16 2 -28t-25 -11h-63z" />
    <glyph glyph-name="Eacute" unicode="&#xc9;" horiz-adv-x="550" 
d="M369 1231h-179v-486h179q33 0 32 -32v-66q0 -12 -9 -22t-23 -11h-179v-483h179q14 0 23 -10t9 -23v-65q0 -33 -32 -33h-244q-27 0 -46 18t-20 48v1230q-1 27 19 46t47 20h244q14 0 23 -10t9 -23v-65q1 -33 -32 -33zM414 1782q16 0 22 -12t-2 -27l-117 -207
q-20 -39 -65 -39h-64q-18 0 -24 11t2 28l119 207q18 39 63 39h66z" />
    <glyph glyph-name="Ecircumflex" unicode="&#xca;" horiz-adv-x="512" 
d="M369 1231h-179v-486h179q33 0 32 -32v-66q0 -12 -9 -22t-23 -11h-179v-483h179q14 0 23 -10t9 -23v-65q0 -33 -32 -33h-244q-27 0 -46 18t-20 48v1230q-1 27 19 46t47 20h244q14 0 23 -10t9 -23v-65q1 -33 -32 -33zM424 1497h-64q-45 0 -65 39l-64 113l-65 -113
q-20 -39 -66 -39h-63q-41 0 -23 39l119 207q16 31 60 39h75q43 -8 60 -39l118 -207q8 -16 3 -28q-6 -11 -25 -11z" />
    <glyph glyph-name="Edieresis" unicode="&#xcb;" horiz-adv-x="512" 
d="M369 1231h-179v-486h179q33 0 32 -32v-66q0 -12 -9 -22t-23 -11h-179v-483h179q14 0 23 -10t9 -23v-65q0 -33 -32 -33h-244q-27 0 -46 18t-20 48v1230q-1 27 19 46t47 20h244q14 0 23 -10t9 -23v-65q1 -33 -32 -33zM92 1497q-33 0 -33 33v135q0 33 33 33h66q12 0 22 -9
t10 -24v-135q0 -14 -10 -24t-22 -9h-66zM367 1698q33 0 32 -33v-135q0 -33 -32 -33h-66q-33 0 -33 33v135q0 33 33 33h66z" />
    <glyph glyph-name="Igrave" unicode="&#xcc;" horiz-adv-x="301" 
d="M190 1329v-1296q0 -33 -32 -33h-66q-33 0 -33 33v1296q-1 13 9 23t24 10h66q14 0 23 -10t9 -23zM160 1497h-64q-43 0 -65 37l-119 209q-8 14 -2 26t24 13h64q43 0 65 -39l119 -209q8 -14 2 -26t-24 -11z" />
    <glyph glyph-name="Iacute" unicode="&#xcd;" horiz-adv-x="301" 
d="M190 1329v-1296q0 -33 -32 -33h-66q-33 0 -33 33v1296q-1 13 9 23t24 10h66q14 0 23 -10t9 -23zM307 1782q19 0 25 -12t-2 -27l-119 -207q-20 -39 -66 -39h-63q-41 0 -23 39l119 207q20 39 66 39h63z" />
    <glyph glyph-name="Icircumflex" unicode="&#xce;" horiz-adv-x="301" 
d="M190 1329v-1296q0 -33 -32 -33h-66q-33 0 -33 33v1296q-1 13 9 23t24 10h66q14 0 23 -10t9 -23zM317 1497h-63q-43 0 -66 37l-63 115l-66 -115q-23 -37 -65 -37h-64q-18 0 -24 11t2 26l119 209q20 33 59 37q2 2 39 2t37 -2q43 -4 59 -37l119 -209q8 -14 2 -26t-25 -11z
" />
    <glyph glyph-name="Idieresis" unicode="&#xcf;" horiz-adv-x="301" 
d="M190 1329v-1296q0 -33 -32 -33h-66q-33 0 -33 33v1296q-1 13 9 23t24 10h66q14 0 23 -10t9 -23zM262 1698q14 0 24 -10t9 -23v-137q0 -12 -9 -22t-24 -9h-65q-14 0 -24 9q-9 9 -9 22v137q0 13 9 23t24 10h65zM86 1528q0 -12 -9 -22t-24 -9h-65q-14 0 -24 9q-9 9 -9 22
v137q0 13 9 23t24 10h65q13 0 23 -10t10 -23v-137z" />
    <glyph glyph-name="Ntilde" unicode="&#xd1;" horiz-adv-x="641" 
d="M296 1362q97 0 167 -70t69 -168v-1091q0 -33 -32 -33h-66q-33 0 -33 33v1091q0 45 -30 76q-31 31 -75 31t-75 -31t-31 -76v-1091q0 -33 -32 -33h-66q-33 0 -33 33v1091q0 98 70 168t167 70zM158 1499q-33 0 -33 33v65q0 33 33 33h276q33 0 33 -33v-65q0 -33 -33 -33h-276
z" />
    <glyph glyph-name="Ograve" unicode="&#xd2;" horiz-adv-x="643" 
d="M296 1362q97 0 167 -70t69 -168v-888q0 -98 -70 -167t-166 -69q-97 0 -167 69t-70 167v888q0 98 70 168t167 70zM401 236v888q0 45 -30 76q-31 31 -75 31t-75 -31t-31 -76v-888q0 -43 31 -74t75 -31t75 31q30 31 30 74zM168 1782q43 0 65 -39l119 -209q8 -14 2 -26
t-24 -11h-64q-42 0 -65 37l-119 209q-10 14 -3 26t25 13h64z" />
    <glyph glyph-name="Oacute" unicode="&#xd3;" horiz-adv-x="643" 
d="M296 1362q97 0 167 -70t69 -168v-888q0 -98 -70 -167t-166 -69q-97 0 -167 69t-70 167v888q0 98 70 168t167 70zM401 236v888q0 45 -30 76q-31 31 -75 31t-75 -31t-31 -76v-888q0 -43 31 -74t75 -31t75 31q30 31 30 74zM262 1495q-18 0 -25 12t3 27l118 209q23 37 66 37
h63q19 0 25 -12t-2 -25l-119 -209q-23 -39 -65 -39h-64z" />
    <glyph glyph-name="Ocircumflex" unicode="&#xd4;" horiz-adv-x="641" 
d="M296 1362q97 0 167 -70t69 -168v-888q0 -98 -70 -167t-166 -69q-97 0 -167 69t-70 167v888q0 98 70 168t167 70zM401 236v888q0 45 -30 76q-31 31 -75 31t-75 -31t-31 -76v-888q0 -43 31 -74t75 -31t75 31q30 31 30 74zM102 1497q-18 0 -24 11t2 26l119 209q16 31 57 39
h78q41 -8 57 -39l119 -209q8 -14 2 -26t-25 -11h-63q-45 0 -64 37l-65 115l-66 -115q-18 -37 -63 -37h-64z" />
    <glyph glyph-name="Otilde" unicode="&#xd5;" 
 />
    <glyph glyph-name="Odieresis" unicode="&#xd6;" horiz-adv-x="643" 
d="M296 1362q97 0 167 -70t69 -168v-888q0 -98 -70 -167t-166 -69q-97 0 -167 69t-70 167v888q0 98 70 168t167 70zM401 236v888q0 45 -30 76q-31 31 -75 31t-75 -31t-31 -76v-888q0 -43 31 -74t75 -31t75 31q30 31 30 74zM367 1497q-12 0 -23 9q-10 9 -10 24v135
q0 13 10 23t23 10h65q33 0 33 -33v-135q0 -33 -33 -33h-65zM158 1497q-33 0 -33 33v135q0 33 33 33h65q33 0 33 -33v-135q0 -33 -33 -33h-65z" />
    <glyph glyph-name="Oslash" unicode="&#xd8;" 
 />
    <glyph glyph-name="Ugrave" unicode="&#xd9;" horiz-adv-x="643" 
d="M500 1362q14 0 23 -10t9 -23v-1093q0 -98 -70 -167t-166 -69q-97 0 -167 69t-70 167v1093q1 13 11 23t22 10h66q14 0 23 -10t9 -23v-1093q0 -43 31 -74t75 -31t75 31t30 74v1093q-1 13 9 23t24 10h66zM168 1780q45 0 63 -37l119 -209q10 -14 3 -26t-25 -13h-64
q-42 0 -65 39l-117 209q-8 14 -2 25t22 12h66z" />
    <glyph glyph-name="Uacute" unicode="&#xda;" horiz-adv-x="643" 
d="M500 1362q14 0 23 -10t9 -23v-1093q0 -98 -70 -167t-166 -69q-97 0 -167 69t-70 167v1093q1 13 11 23t22 10h66q14 0 23 -10t9 -23v-1093q0 -43 31 -74t75 -31t75 31t30 74v1093q-1 13 9 23t24 10h66zM252 1497q-18 0 -25 11q-6 11 2 26l119 209q23 39 64 39h65
q17 0 23 -12t-2 -27l-117 -209q-23 -37 -66 -37h-63z" />
    <glyph glyph-name="Ucircumflex" unicode="&#xdb;" horiz-adv-x="643" 
d="M500 1362q14 0 23 -10t9 -23v-1093q0 -98 -70 -167t-166 -69q-97 0 -167 69t-70 167v1093q1 13 11 23t22 10h66q14 0 23 -10t9 -23v-1093q0 -43 31 -74t75 -31t75 31t30 74v1093q-1 13 9 23t24 10h66zM102 1497q-18 0 -24 11t2 26l119 209q16 31 57 39h78q41 -8 57 -39
l119 -209q8 -14 2 -26t-25 -11h-63q-45 0 -64 37l-65 115l-64 -115q-23 -37 -65 -37h-64z" />
    <glyph glyph-name="Udieresis" unicode="&#xdc;" horiz-adv-x="643" 
d="M500 1362q14 0 23 -10t9 -23v-1093q0 -98 -70 -167t-166 -69q-97 0 -167 69t-70 167v1093q1 13 11 23t22 10h66q14 0 23 -10t9 -23v-1093q0 -43 31 -74t75 -31t75 31t30 74v1093q-1 13 9 23t24 10h66zM369 1495q-14 0 -24 10q-9 10 -9 23v135q0 33 33 33h63q33 0 33 -33
v-135q0 -12 -9 -22t-24 -11h-63zM158 1495q-14 0 -24 10q-9 10 -9 23v135q0 33 33 33h65q33 0 33 -33v-135q0 -12 -9 -22t-24 -11h-65z" />
    <glyph glyph-name="Yacute" unicode="&#xdd;" 
 />
    <glyph glyph-name="agrave" unicode="&#xe0;" horiz-adv-x="643" 
d="M401 748v376q0 45 -30 76q-31 31 -75 31t-75 -31t-31 -76v-376h211zM296 1362q97 0 167 -70t69 -168v-1091q0 -33 -32 -33h-66q-33 0 -33 33v583h-211v-583q0 -33 -32 -33h-66q-12 0 -22 9t-11 24v1091q0 98 70 168t167 70zM104 1782h64q45 0 65 -39l119 -207
q8 -16 2 -28t-24 -11h-64q-45 0 -65 39l-119 207q-18 39 22 39z" />
    <glyph glyph-name="aacute" unicode="&#xe1;" horiz-adv-x="643" 
d="M401 748v376q0 45 -30 76q-31 31 -75 31t-75 -31t-31 -76v-376h211zM296 1362q97 0 167 -70t69 -168v-1091q0 -33 -32 -33h-66q-33 0 -33 33v583h-211v-583q0 -33 -32 -33h-66q-12 0 -22 9t-11 24v1091q0 98 70 168t167 70zM254 1497q-18 0 -25 11q-6 11 2 26l119 209
q18 37 64 37h63q19 0 25 -12t-2 -25l-119 -209q-18 -37 -64 -37h-63z" />
    <glyph glyph-name="acircumflex" unicode="&#xe2;" horiz-adv-x="643" 
d="M401 748v376q0 45 -30 76q-31 31 -75 31t-75 -31t-31 -76v-376h211zM296 1362q97 0 167 -70t69 -168v-1091q0 -33 -32 -33h-66q-33 0 -33 33v583h-211v-583q0 -33 -32 -33h-66q-12 0 -22 9t-11 24v1091q0 98 70 168t167 70zM102 1495q-39 0 -22 37l119 209q18 33 57 37
q2 2 39 2t39 -2q39 -4 57 -37l119 -209q8 -16 2 -26t-25 -11h-63q-43 0 -66 37l-63 115l-64 -115q-23 -37 -65 -37h-64z" />
    <glyph glyph-name="adieresis" unicode="&#xe4;" horiz-adv-x="643" 
d="M401 748v376q0 45 -30 76q-31 31 -75 31t-75 -31t-31 -76v-376h211zM296 1362q97 0 167 -70t69 -168v-1091q0 -33 -32 -33h-66q-33 0 -33 33v583h-211v-583q0 -33 -32 -33h-66q-12 0 -22 9t-11 24v1091q0 98 70 168t167 70zM158 1497q-33 0 -33 33v135q0 13 9 23t24 10
h65q13 0 23 -10t10 -23v-135q0 -33 -33 -33h-65zM369 1497q-33 0 -33 33v135q0 13 9 23t24 10h63q14 0 24 -10t9 -23v-135q0 -33 -33 -33h-63z" />
    <glyph glyph-name="ccedilla" unicode="&#xe7;" horiz-adv-x="641" 
d="M432 1024q-33 0 -33 33v69q0 43 -30 74q-31 31 -74 31t-74 -31t-31 -74v-890q0 -45 31 -76t74 -31t74 31t30 76v75q0 33 33 33h66q33 0 32 -33v-75q0 -80 -48 -142t-122 -86v-102q0 -33 -32 -33h-66q-33 0 -33 33v102q-73 23 -121 85t-49 143v890q0 96 70 166t166 70
t166 -70t69 -166v-69q0 -33 -32 -33h-66z" />
    <glyph glyph-name="egrave" unicode="&#xe8;" horiz-adv-x="512" 
d="M369 1231h-179v-486h179q33 0 32 -32v-66q0 -12 -9 -22t-23 -11h-179v-483h179q14 0 23 -10t9 -23v-65q0 -33 -32 -33h-244q-27 0 -46 18t-20 48v1230q-1 27 19 46t47 20h244q14 0 23 -10t9 -23v-65q1 -33 -32 -33zM199 1497q-45 0 -64 39l-119 207q-8 16 -2 27t25 12h63
q45 0 64 -39l119 -207q8 -16 2 -28t-25 -11h-63z" />
    <glyph glyph-name="eacute" unicode="&#xe9;" horiz-adv-x="550" 
d="M369 1231h-179v-486h179q33 0 32 -32v-66q0 -12 -9 -22t-23 -11h-179v-483h179q14 0 23 -10t9 -23v-65q0 -33 -32 -33h-244q-27 0 -46 18t-20 48v1230q-1 27 19 46t47 20h244q14 0 23 -10t9 -23v-65q1 -33 -32 -33zM414 1782q16 0 22 -12t-2 -27l-117 -207
q-20 -39 -65 -39h-64q-18 0 -24 11t2 28l119 207q18 39 63 39h66z" />
    <glyph glyph-name="ecircumflex" unicode="&#xea;" horiz-adv-x="512" 
d="M369 1231h-179v-486h179q33 0 32 -32v-66q0 -12 -9 -22t-23 -11h-179v-483h179q14 0 23 -10t9 -23v-65q0 -33 -32 -33h-244q-27 0 -46 18t-20 48v1230q-1 27 19 46t47 20h244q14 0 23 -10t9 -23v-65q1 -33 -32 -33zM424 1497h-64q-45 0 -65 39l-64 113l-65 -113
q-20 -39 -66 -39h-63q-41 0 -23 39l119 207q16 31 60 39h75q43 -8 60 -39l118 -207q8 -16 3 -28q-6 -11 -25 -11z" />
    <glyph glyph-name="edieresis" unicode="&#xeb;" horiz-adv-x="512" 
d="M369 1231h-179v-486h179q33 0 32 -32v-66q0 -12 -9 -22t-23 -11h-179v-483h179q14 0 23 -10t9 -23v-65q0 -33 -32 -33h-244q-27 0 -46 18t-20 48v1230q-1 27 19 46t47 20h244q14 0 23 -10t9 -23v-65q1 -33 -32 -33zM92 1497q-33 0 -33 33v135q0 33 33 33h66q12 0 22 -9
t10 -24v-135q0 -14 -10 -24t-22 -9h-66zM367 1698q33 0 32 -33v-135q0 -33 -32 -33h-66q-33 0 -33 33v135q0 33 33 33h66z" />
    <glyph glyph-name="igrave" unicode="&#xec;" horiz-adv-x="301" 
d="M190 1329v-1296q0 -33 -32 -33h-66q-33 0 -33 33v1296q-1 13 9 23t24 10h66q14 0 23 -10t9 -23zM160 1497h-64q-43 0 -65 37l-119 209q-8 14 -2 26t24 13h64q43 0 65 -39l119 -209q8 -14 2 -26t-24 -11z" />
    <glyph glyph-name="iacute" unicode="&#xed;" horiz-adv-x="301" 
d="M190 1329v-1296q0 -33 -32 -33h-66q-33 0 -33 33v1296q-1 13 9 23t24 10h66q14 0 23 -10t9 -23zM307 1782q19 0 25 -12t-2 -27l-119 -207q-20 -39 -66 -39h-63q-41 0 -23 39l119 207q20 39 66 39h63z" />
    <glyph glyph-name="icircumflex" unicode="&#xee;" horiz-adv-x="301" 
d="M190 1329v-1296q0 -33 -32 -33h-66q-33 0 -33 33v1296q-1 13 9 23t24 10h66q14 0 23 -10t9 -23zM317 1497h-63q-43 0 -66 37l-63 115l-66 -115q-23 -37 -65 -37h-64q-18 0 -24 11t2 26l119 209q20 33 59 37q2 2 39 2t37 -2q43 -4 59 -37l119 -209q8 -14 2 -26t-25 -11z
" />
    <glyph glyph-name="idieresis" unicode="&#xef;" horiz-adv-x="301" 
d="M190 1329v-1296q0 -33 -32 -33h-66q-33 0 -33 33v1296q-1 13 9 23t24 10h66q14 0 23 -10t9 -23zM262 1698q14 0 24 -10t9 -23v-137q0 -12 -9 -22t-24 -9h-65q-14 0 -24 9q-9 9 -9 22v137q0 13 9 23t24 10h65zM86 1528q0 -12 -9 -22t-24 -9h-65q-14 0 -24 9q-9 9 -9 22
v137q0 13 9 23t24 10h65q13 0 23 -10t10 -23v-137z" />
    <glyph glyph-name="ntilde" unicode="&#xf1;" horiz-adv-x="641" 
d="M296 1362q97 0 167 -70t69 -168v-1091q0 -33 -32 -33h-66q-33 0 -33 33v1091q0 45 -30 76q-31 31 -75 31t-75 -31t-31 -76v-1091q0 -33 -32 -33h-66q-33 0 -33 33v1091q0 98 70 168t167 70zM158 1499q-33 0 -33 33v65q0 33 33 33h276q33 0 33 -33v-65q0 -33 -33 -33h-276
z" />
    <glyph glyph-name="ograve" unicode="&#xf2;" horiz-adv-x="643" 
d="M296 1362q97 0 167 -70t69 -168v-888q0 -98 -70 -167t-166 -69q-97 0 -167 69t-70 167v888q0 98 70 168t167 70zM401 236v888q0 45 -30 76q-31 31 -75 31t-75 -31t-31 -76v-888q0 -43 31 -74t75 -31t75 31q30 31 30 74zM168 1782q43 0 65 -39l119 -209q8 -14 2 -26
t-24 -11h-64q-42 0 -65 37l-119 209q-10 14 -3 26t25 13h64z" />
    <glyph glyph-name="oacute" unicode="&#xf3;" horiz-adv-x="643" 
d="M296 1362q97 0 167 -70t69 -168v-888q0 -98 -70 -167t-166 -69q-97 0 -167 69t-70 167v888q0 98 70 168t167 70zM401 236v888q0 45 -30 76q-31 31 -75 31t-75 -31t-31 -76v-888q0 -43 31 -74t75 -31t75 31q30 31 30 74zM262 1495q-18 0 -25 12t3 27l118 209q23 37 66 37
h63q19 0 25 -12t-2 -25l-119 -209q-23 -39 -65 -39h-64z" />
    <glyph glyph-name="ocircumflex" unicode="&#xf4;" horiz-adv-x="641" 
d="M296 1362q97 0 167 -70t69 -168v-888q0 -98 -70 -167t-166 -69q-97 0 -167 69t-70 167v888q0 98 70 168t167 70zM401 236v888q0 45 -30 76q-31 31 -75 31t-75 -31t-31 -76v-888q0 -43 31 -74t75 -31t75 31q30 31 30 74zM102 1497q-18 0 -24 11t2 26l119 209q16 31 57 39
h78q41 -8 57 -39l119 -209q8 -14 2 -26t-25 -11h-63q-45 0 -64 37l-65 115l-66 -115q-18 -37 -63 -37h-64z" />
    <glyph glyph-name="odieresis" unicode="&#xf6;" horiz-adv-x="643" 
d="M296 1362q97 0 167 -70t69 -168v-888q0 -98 -70 -167t-166 -69q-97 0 -167 69t-70 167v888q0 98 70 168t167 70zM401 236v888q0 45 -30 76q-31 31 -75 31t-75 -31t-31 -76v-888q0 -43 31 -74t75 -31t75 31q30 31 30 74zM367 1497q-12 0 -23 9q-10 9 -10 24v135
q0 13 10 23t23 10h65q33 0 33 -33v-135q0 -33 -33 -33h-65zM158 1497q-33 0 -33 33v135q0 33 33 33h65q33 0 33 -33v-135q0 -33 -33 -33h-65z" />
    <glyph glyph-name="ugrave" unicode="&#xf9;" horiz-adv-x="643" 
d="M500 1362q14 0 23 -10t9 -23v-1093q0 -98 -70 -167t-166 -69q-97 0 -167 69t-70 167v1093q1 13 11 23t22 10h66q14 0 23 -10t9 -23v-1093q0 -43 31 -74t75 -31t75 31t30 74v1093q-1 13 9 23t24 10h66zM168 1780q45 0 63 -37l119 -209q10 -14 3 -26t-25 -13h-64
q-42 0 -65 39l-117 209q-8 14 -2 25t22 12h66z" />
    <glyph glyph-name="uacute" unicode="&#xfa;" horiz-adv-x="643" 
d="M500 1362q14 0 23 -10t9 -23v-1093q0 -98 -70 -167t-166 -69q-97 0 -167 69t-70 167v1093q1 13 11 23t22 10h66q14 0 23 -10t9 -23v-1093q0 -43 31 -74t75 -31t75 31t30 74v1093q-1 13 9 23t24 10h66zM252 1497q-18 0 -25 11q-6 11 2 26l119 209q23 39 64 39h65
q17 0 23 -12t-2 -27l-117 -209q-23 -37 -66 -37h-63z" />
    <glyph glyph-name="ucircumflex" unicode="&#xfb;" horiz-adv-x="643" 
d="M500 1362q14 0 23 -10t9 -23v-1093q0 -98 -70 -167t-166 -69q-97 0 -167 69t-70 167v1093q1 13 11 23t22 10h66q14 0 23 -10t9 -23v-1093q0 -43 31 -74t75 -31t75 31t30 74v1093q-1 13 9 23t24 10h66zM102 1497q-18 0 -24 11t2 26l119 209q16 31 57 39h78q41 -8 57 -39
l119 -209q8 -14 2 -26t-25 -11h-63q-45 0 -64 37l-65 115l-64 -115q-23 -37 -65 -37h-64z" />
    <glyph glyph-name="udieresis" unicode="&#xfc;" horiz-adv-x="643" 
d="M500 1362q14 0 23 -10t9 -23v-1093q0 -98 -70 -167t-166 -69q-97 0 -167 69t-70 167v1093q1 13 11 23t22 10h66q14 0 23 -10t9 -23v-1093q0 -43 31 -74t75 -31t75 31t30 74v1093q-1 13 9 23t24 10h66zM369 1495q-14 0 -24 10q-9 10 -9 23v135q0 33 33 33h63q33 0 33 -33
v-135q0 -12 -9 -22t-24 -11h-63zM158 1495q-14 0 -24 10q-9 10 -9 23v135q0 33 33 33h65q33 0 33 -33v-135q0 -12 -9 -22t-24 -11h-65z" />
    <glyph glyph-name="Amacron" unicode="&#x100;" 
 />
    <glyph glyph-name="Abreve" unicode="&#x102;" 
 />
    <glyph glyph-name="Aogonek" unicode="&#x104;" 
 />
    <glyph glyph-name="Cacute" unicode="&#x106;" 
 />
    <glyph glyph-name="Ccircumflex" unicode="&#x108;" 
 />
    <glyph glyph-name="Cdotaccent" unicode="&#x10a;" 
 />
    <glyph glyph-name="Ccaron" unicode="&#x10c;" 
 />
    <glyph glyph-name="Dcaron" unicode="&#x10e;" 
 />
    <glyph glyph-name="Dcroat" unicode="&#x110;" 
 />
    <glyph glyph-name="Emacron" unicode="&#x112;" 
 />
    <glyph glyph-name="Ebreve" unicode="&#x114;" 
 />
    <glyph glyph-name="Edotaccent" unicode="&#x116;" 
 />
    <glyph glyph-name="Eogonek" unicode="&#x118;" 
 />
    <glyph glyph-name="Ecaron" unicode="&#x11a;" horiz-adv-x="512" 
 />
    <glyph glyph-name="Gcircumflex" unicode="&#x11c;" 
 />
    <glyph glyph-name="Gbreve" unicode="&#x11e;" 
 />
    <glyph glyph-name="Gdotaccent" unicode="&#x120;" 
 />
    <glyph glyph-name="Gcommaaccent" unicode="&#x122;" 
 />
    <glyph glyph-name="Hcircumflex" unicode="&#x124;" 
 />
    <glyph glyph-name="Hbar" unicode="&#x126;" 
 />
    <glyph glyph-name="Itilde" unicode="&#x128;" 
 />
    <glyph glyph-name="Ibreve" unicode="&#x12c;" 
 />
    <glyph glyph-name="Iogonek" unicode="&#x12e;" 
 />
    <glyph glyph-name="Idotaccent" unicode="&#x130;" 
 />
    <glyph glyph-name="IJ" unicode="&#x132;" 
 />
    <glyph glyph-name="Jcircumflex" unicode="&#x134;" 
 />
    <glyph glyph-name="Kcommaaccent" unicode="&#x136;" 
 />
    <glyph glyph-name="Lacute" unicode="&#x139;" 
 />
    <glyph glyph-name="Lcommaaccent" unicode="&#x13b;" 
 />
    <glyph glyph-name="Lcaron" unicode="&#x13d;" 
 />
    <glyph glyph-name="Ldot" unicode="&#x13f;" 
 />
    <glyph glyph-name="Lslash" unicode="&#x141;" 
 />
    <glyph glyph-name="Nacute" unicode="&#x143;" 
 />
    <glyph glyph-name="Ncommaaccent" unicode="&#x145;" 
 />
    <glyph glyph-name="Ncaron" unicode="&#x147;" 
 />
    <glyph glyph-name="Omacron" unicode="&#x14c;" 
 />
    <glyph glyph-name="Obreve" unicode="&#x14e;" 
 />
    <glyph glyph-name="Ohungarumlaut" unicode="&#x150;" 
 />
    <glyph glyph-name="OE" unicode="&#x152;" horiz-adv-x="3411" 
 />
    <glyph glyph-name="Racute" unicode="&#x154;" 
 />
    <glyph glyph-name="Rcommaaccent" unicode="&#x156;" 
 />
    <glyph glyph-name="Rcaron" unicode="&#x158;" 
 />
    <glyph glyph-name="Sacute" unicode="&#x15a;" 
 />
    <glyph glyph-name="Scircumflex" unicode="&#x15c;" 
 />
    <glyph glyph-name="Scedilla" unicode="&#x15e;" 
 />
    <glyph glyph-name="Scaron" unicode="&#x160;" 
 />
    <glyph glyph-name="Tcommaaccent" unicode="&#x162;" 
 />
    <glyph glyph-name="Tcaron" unicode="&#x164;" 
 />
    <glyph glyph-name="Tbar" unicode="&#x166;" 
 />
    <glyph glyph-name="Utilde" unicode="&#x168;" 
 />
    <glyph glyph-name="Umacron" unicode="&#x16a;" 
 />
    <glyph glyph-name="Ubreve" unicode="&#x16c;" 
 />
    <glyph glyph-name="Uring" unicode="&#x16e;" 
 />
    <glyph glyph-name="Uhungarumlaut" unicode="&#x170;" 
 />
    <glyph glyph-name="Uogonek" unicode="&#x172;" 
 />
    <glyph glyph-name="Wcircumflex" unicode="&#x174;" 
 />
    <glyph glyph-name="Ycircumflex" unicode="&#x176;" 
 />
    <glyph glyph-name="Ydieresis" unicode="&#x178;" 
 />
    <glyph glyph-name="Zacute" unicode="&#x179;" 
 />
    <glyph glyph-name="Zdotaccent" unicode="&#x17b;" 
 />
    <glyph glyph-name="Zcaron" unicode="&#x17d;" 
 />
    <glyph glyph-name="AEacute" unicode="&#x1fc;" 
 />
    <glyph glyph-name="Oslashacute" unicode="&#x1fe;" 
 />
    <glyph glyph-name="Scommaaccent" unicode="&#x218;" 
 />
    <glyph glyph-name="circumflex" unicode="&#x2c6;" 
 />
    <glyph glyph-name="caron" unicode="&#x2c7;" 
 />
    <glyph glyph-name="breve" unicode="&#x2d8;" 
 />
    <glyph glyph-name="dotaccent" unicode="&#x2d9;" 
 />
    <glyph glyph-name="ring" unicode="&#x2da;" 
 />
    <glyph glyph-name="ogonek" unicode="&#x2db;" 
 />
    <glyph glyph-name="tilde" unicode="&#x2dc;" 
 />
    <glyph glyph-name="hungarumlaut" unicode="&#x2dd;" horiz-adv-x="901" 
 />
    <glyph glyph-name="Wgrave" unicode="&#x1e80;" 
 />
    <glyph glyph-name="Wacute" unicode="&#x1e82;" 
 />
    <glyph glyph-name="Wdieresis" unicode="&#x1e84;" 
 />
    <glyph glyph-name="Ygrave" unicode="&#x1ef2;" 
 />
    <glyph glyph-name="euro" unicode="&#x20ac;" horiz-adv-x="776" 
d="M567 1024q-33 0 -32 33v69q0 45 -31 76t-75 31t-75 -31t-30 -76v-247h102q33 0 33 -33v-66q0 -33 -33 -32h-102v-130h102q14 0 24 -10t9 -22v-66q0 -33 -33 -33h-102v-251q0 -43 30 -74t75 -31q44 0 75 31t31 74v77q0 13 9 23t23 10h64q14 0 23 -10t10 -23v-77
q0 -96 -69 -166t-166 -70t-167 70t-69 166v251h-103q-12 -1 -21 9t-10 24v66q-1 12 9 22t22 10h103v130h-103q-12 0 -21 9t-10 23v66q-1 14 9 23t22 10h103v247q0 98 69 167q70 69 167 69t166 -69t69 -167v-69q0 -33 -33 -33h-64z" />
    <glyph glyph-name="CR" horiz-adv-x="294" 
 />
    <glyph glyph-name="Imacron" 
 />
    <glyph glyph-name="K.alt" 
 />
    <glyph glyph-name="Kcommaaccent.alt" 
 />
    <glyph glyph-name="Q.alt" 
 />
    <glyph glyph-name="R.alt" 
 />
    <glyph glyph-name="Racute.alt" 
 />
    <glyph glyph-name="Rcaron.alt" 
 />
    <glyph glyph-name="Rcommaaccent.alt" 
 />
    <glyph glyph-name="T_h" horiz-adv-x="2347" 
 />
    <glyph glyph-name="T_h.caron" 
 />
    <glyph glyph-name="T_h.commaaccent" 
 />
    <glyph glyph-name="Asmall" horiz-adv-x="0" 
 />
    <glyph glyph-name="Aacutesmall" horiz-adv-x="0" 
 />
    <glyph glyph-name="Abreve.small" 
 />
    <glyph glyph-name="Acircumflexsmall" horiz-adv-x="0" 
 />
    <glyph glyph-name="Adieresissmall" horiz-adv-x="0" 
 />
    <glyph glyph-name="Agravesmall" horiz-adv-x="0" 
 />
    <glyph glyph-name="Amacron.small" 
 />
    <glyph glyph-name="Aogonek.small" 
 />
    <glyph glyph-name="Aringsmall" horiz-adv-x="0" 
 />
    <glyph glyph-name="Atildesmall" horiz-adv-x="0" 
 />
    <glyph glyph-name="AEsmall" horiz-adv-x="0" 
 />
    <glyph glyph-name="AEacute.small" 
 />
    <glyph glyph-name="Bsmall" horiz-adv-x="0" 
 />
    <glyph glyph-name="Csmall" horiz-adv-x="0" 
 />
    <glyph glyph-name="Cacute.small" 
 />
    <glyph glyph-name="Ccaron.small" 
 />
    <glyph glyph-name="Ccedillasmall" horiz-adv-x="0" 
 />
    <glyph glyph-name="Ccircumflex.small" 
 />
    <glyph glyph-name="Cdotaccent.small" 
 />
    <glyph glyph-name="Dsmall" horiz-adv-x="0" 
 />
    <glyph glyph-name="Dcaron.small" 
 />
    <glyph glyph-name="Dcroat.small" 
 />
    <glyph glyph-name="Esmall" horiz-adv-x="0" 
 />
    <glyph glyph-name="Eacutesmall" horiz-adv-x="0" 
 />
    <glyph glyph-name="Ebreve.small" 
 />
    <glyph glyph-name="Ecaron.small" 
 />
    <glyph glyph-name="Ecircumflexsmall" horiz-adv-x="0" 
 />
    <glyph glyph-name="Edieresissmall" horiz-adv-x="0" 
 />
    <glyph glyph-name="Edotaccent.small" 
 />
    <glyph glyph-name="Egravesmall" horiz-adv-x="0" 
 />
    <glyph glyph-name="Emacron.small" 
 />
    <glyph glyph-name="Eogonek.small" 
 />
    <glyph glyph-name="Fsmall" horiz-adv-x="0" 
 />
    <glyph glyph-name="Gsmall" horiz-adv-x="0" 
 />
    <glyph glyph-name="Gbreve.small" 
 />
    <glyph glyph-name="Gcircumflex.small" 
 />
    <glyph glyph-name="Gcommaaccent.small" 
 />
    <glyph glyph-name="Gdotaccent.small" 
 />
    <glyph glyph-name="Hsmall" horiz-adv-x="0" 
 />
    <glyph glyph-name="Hbar.small" 
 />
    <glyph glyph-name="Hcircumflex.small" 
 />
    <glyph glyph-name="Ismall" horiz-adv-x="0" 
 />
    <glyph glyph-name="Iacutesmall" horiz-adv-x="0" 
 />
    <glyph glyph-name="Ibreve.small" 
 />
    <glyph glyph-name="Icircumflexsmall" horiz-adv-x="0" 
 />
    <glyph glyph-name="Idieresissmall" horiz-adv-x="0" 
 />
    <glyph glyph-name="Idotaccent.small" 
 />
    <glyph glyph-name="Igravesmall" horiz-adv-x="0" 
 />
    <glyph glyph-name="Imacron.small" 
 />
    <glyph glyph-name="Iogonek.small" 
 />
    <glyph glyph-name="Itilde.small" 
 />
    <glyph glyph-name="IJ.small" 
 />
    <glyph glyph-name="Jsmall" horiz-adv-x="0" 
 />
    <glyph glyph-name="Jcircumflex.small" 
 />
    <glyph glyph-name="Ksmall" horiz-adv-x="0" 
 />
    <glyph glyph-name="Kcommaaccent.small" 
 />
    <glyph glyph-name="Ksmall.alt" horiz-adv-x="0" 
 />
    <glyph glyph-name="Kcommaaccent.smallalt" 
 />
    <glyph glyph-name="Lsmall" horiz-adv-x="0" 
 />
    <glyph glyph-name="Lacute.small" 
 />
    <glyph glyph-name="Lcaron.small" 
 />
    <glyph glyph-name="Lcommaaccent.small" 
 />
    <glyph glyph-name="Ldot.small" 
 />
    <glyph glyph-name="Lslashsmall" horiz-adv-x="0" 
 />
    <glyph glyph-name="cyrbreve" horiz-adv-x="0" 
 />
    <glyph glyph-name="commaaccent" horiz-adv-x="294" 
 />
    <glyph glyph-name="undercommaaccent" horiz-adv-x="0" 
 />
    <glyph glyph-name="dieresisacute" horiz-adv-x="0" 
 />
    <glyph glyph-name="dieresisgrave" horiz-adv-x="0" 
 />
    <glyph glyph-name="dblgrave" horiz-adv-x="0" 
 />
    <glyph glyph-name="cyrflex" horiz-adv-x="0" 
 />
    <glyph glyph-name="Acute" horiz-adv-x="0" 
 />
    <glyph glyph-name="Breve" horiz-adv-x="0" 
 />
    <glyph glyph-name="cyrBreve" horiz-adv-x="0" 
 />
    <glyph glyph-name="Caron" horiz-adv-x="0" 
 />
    <glyph glyph-name="Cedilla" horiz-adv-x="0" 
 />
    <glyph glyph-name="Circumflex" horiz-adv-x="0" 
 />
    <glyph glyph-name="commaaccent.cap" horiz-adv-x="294" 
 />
    <glyph glyph-name="Dieresis" horiz-adv-x="0" 
 />
    <glyph glyph-name="DieresisAcute" horiz-adv-x="0" 
 />
    <glyph glyph-name="DieresisGrave" horiz-adv-x="0" 
 />
    <glyph glyph-name="Dotaccent" horiz-adv-x="0" 
 />
    <glyph glyph-name="Hungarumlaut" horiz-adv-x="0" 
 />
    <glyph glyph-name="Grave" horiz-adv-x="0" 
 />
    <glyph glyph-name="dblGrave" horiz-adv-x="0" 
 />
    <glyph glyph-name="cyrFlex" horiz-adv-x="0" 
 />
    <glyph glyph-name="Macron" horiz-adv-x="0" 
 />
    <glyph glyph-name="Ogonek" horiz-adv-x="0" 
 />
    <glyph glyph-name="Ring" horiz-adv-x="0" 
 />
    <glyph glyph-name="Tilde" horiz-adv-x="0" 
 />
    <glyph glyph-name="Acutesmall" horiz-adv-x="0" 
 />
    <glyph glyph-name="Brevesmall" horiz-adv-x="0" 
 />
    <glyph glyph-name="Caronsmall" horiz-adv-x="0" 
 />
    <glyph glyph-name="Cedillasmall" horiz-adv-x="0" 
 />
    <glyph glyph-name="Circumflexsmall" horiz-adv-x="0" 
 />
    <glyph glyph-name="commaaccent.small" horiz-adv-x="294" 
 />
    <glyph glyph-name="Dieresissmall" horiz-adv-x="0" 
 />
    <glyph glyph-name="DieresisAcute.small" horiz-adv-x="0" 
 />
    <glyph glyph-name="DieresisGrave.small" horiz-adv-x="0" 
 />
    <glyph glyph-name="Dotaccentsmall" horiz-adv-x="0" 
 />
    <glyph glyph-name="Hungarumlautsmall" horiz-adv-x="0" 
 />
    <glyph glyph-name="Gravesmall" horiz-adv-x="0" 
 />
    <glyph glyph-name="dblGrave.small" horiz-adv-x="0" 
 />
    <glyph glyph-name="Macronsmall" horiz-adv-x="0" 
 />
    <glyph glyph-name="Ogoneksmall" horiz-adv-x="0" 
 />
    <glyph glyph-name="Ringsmall" horiz-adv-x="0" 
 />
    <glyph glyph-name="Tildesmall" horiz-adv-x="0" 
 />
    </font>
</defs>
</svg>
